<svg width="24" height="24" viewBox="0 0 24 24" fill="none" xmlns="http://www.w3.org/2000/svg">
<path d="M19 0H5C2.239 0 0 2.239 0 5V19C0 21.761 2.239 24 5 24H19C21.762 24 24 21.761 24 19V5C24 2.239 21.762 0 19 0ZM16 7H14.076C13.461 7 13 7.252 13 7.889V9H16L15.762 12H13V20H10V12H8V9H10V7.077C10 5.055 11.064 4 13.461 4H16V7Z" fill="url(#paint0_linear)"/>
<defs>
<linearGradient id="paint0_linear" x1="12" y1="0" x2="12" y2="24" gradientUnits="userSpaceOnUse">
<stop stop-color="#FF6B00"/>
<stop offset="1" stop-color="#FFD600"/>
</linearGradient>
</defs>
</svg>
