<svg width="167" height="258" viewBox="0 0 167 258" fill="none" xmlns="http://www.w3.org/2000/svg">
<path d="M19.0803 17.9914V15.6014H16.6903V17.9914H19.0803ZM117.588 17.9914H119.978V15.6014H117.588V17.9914ZM117.588 193.287V195.677H119.978V193.287H117.588ZM19.0803 193.287H16.6903V195.677H19.0803V193.287ZM28.9003 94.7416V92.3516H26.5103V94.7416H28.9003ZM107.774 94.7416H110.164V92.3516H107.774V94.7416ZM107.774 125.24V127.63H110.164V125.24H107.774ZM28.9003 125.24H26.5103V127.63H28.9003V125.24ZM61.0132 101.142C59.6932 101.142 58.6232 102.212 58.6232 103.532C58.6232 104.852 59.6932 105.922 61.0132 105.922V101.142ZM97.0634 105.922C98.3834 105.922 99.4534 104.852 99.4534 103.532C99.4534 102.212 98.3834 101.142 97.0634 101.142V105.922ZM61.0132 110.58C59.6932 110.58 58.6232 111.65 58.6232 112.97C58.6232 114.29 59.6932 115.36 61.0132 115.36V110.58ZM75.6579 115.36C76.9779 115.36 78.0479 114.29 78.0479 112.97C78.0479 111.65 76.9779 110.58 75.6579 110.58V115.36ZM96.2624 227.995C95.5465 229.104 95.8653 230.584 96.9743 231.3C98.0833 232.015 99.5626 231.697 100.278 230.588L96.2624 227.995ZM113.628 193.369C113.674 192.05 112.641 190.944 111.322 190.898C110.003 190.853 108.897 191.885 108.851 193.204L113.628 193.369ZM82.3426 252.55C81.8453 253.773 82.4332 255.167 83.6559 255.665C84.8786 256.162 86.2729 255.574 86.7703 254.351L82.3426 252.55ZM93.253 241.563C93.9452 240.439 93.5952 238.967 92.4712 238.275C91.3473 237.583 89.8751 237.933 89.1829 239.057L93.253 241.563ZM28.9003 49.965V47.575H26.5103V49.965H28.9003ZM107.774 49.965H110.164V47.575H107.774V49.965ZM107.774 80.4637V82.8537H110.164V80.4637H107.774ZM28.9003 80.4637H26.5103V82.8537H28.9003V80.4637ZM117.588 36.0434V38.4334H119.978V36.0434H117.588ZM19.0803 36.0434H16.6903V38.4334H19.0803V36.0434ZM19.0803 175.232V172.842H16.6903V175.232H19.0803ZM117.588 175.232H119.978V172.842H117.588V175.232ZM117.588 193.284V195.674H119.978V193.284H117.588ZM19.0803 193.284H16.6903V195.674H19.0803V193.284ZM61.0132 24.6274C59.6932 24.6274 58.6232 25.6974 58.6232 27.0174C58.6232 28.3373 59.6932 29.4074 61.0132 29.4074V24.6274ZM75.6579 29.4074C76.9779 29.4074 78.0479 28.3373 78.0479 27.0174C78.0479 25.6974 76.9779 24.6274 75.6579 24.6274V29.4074ZM4.65278 255L2.34167 254.391L1.5514 257.39H4.65278V255ZM4.65278 154.298L3.24388 152.368L1.79694 153.424L2.40441 155.109L4.65278 154.298ZM50.8829 119.285L52.2074 117.296L50.7431 116.321L49.377 117.429L50.8829 119.285ZM38.1619 159.256L36.7481 157.329L35.7719 158.045V159.256H38.1619ZM38.1619 167.002H35.7719V169.392H38.1619V167.002ZM51.5035 222.466L53.7825 223.185L53.808 223.105L53.8278 223.022L51.5035 222.466ZM59.7722 255V257.39H64.0266L61.8133 253.757L59.7722 255ZM46.3264 170.711C45.6385 169.585 44.1676 169.229 43.0411 169.917C41.9145 170.605 41.5589 172.076 42.2468 173.202L46.3264 170.711ZM47.6278 220.357C47.3205 221.64 48.112 222.93 49.3957 223.238C50.6793 223.545 51.9691 222.753 52.2764 221.47L47.6278 220.357ZM43.1504 119.53C42.1049 120.336 41.9105 121.836 42.7162 122.882C43.522 123.927 45.0227 124.122 46.0682 123.316L43.1504 119.53ZM49.3316 117.736L50.6561 115.746C49.7851 115.166 48.6382 115.22 47.8257 115.88L49.3316 117.736ZM36.6105 157.706L35.1967 155.78C34.5831 156.23 34.2205 156.945 34.2205 157.706H36.6105ZM34.2205 163.343C34.2205 164.663 35.2906 165.733 36.6105 165.733C37.9305 165.733 39.0005 164.663 39.0005 163.343H34.2205ZM6.33704 147.38C5.27848 148.169 5.05957 149.666 5.84808 150.725C6.63659 151.783 8.13394 152.002 9.19249 151.214L6.33704 147.38ZM36.8241 130.391C37.8753 129.593 38.0804 128.093 37.2822 127.042C36.4839 125.991 34.9846 125.786 33.9334 126.584L36.8241 130.391ZM0.790354 252.842C0.453967 254.118 1.21598 255.425 2.49236 255.762C3.76874 256.098 5.07614 255.336 5.41253 254.06L0.790354 252.842ZM8.18131 168.454C8.06393 167.139 6.90297 166.168 5.58824 166.286C4.27351 166.403 3.30287 167.564 3.42025 168.879L8.18131 168.454ZM90.2344 56.3655C88.9144 56.3655 87.8444 57.4355 87.8444 58.7555C87.8444 60.0754 88.9144 61.1455 90.2344 61.1455V56.3655ZM97.0634 61.1455C98.3834 61.1455 99.4534 60.0754 99.4534 58.7555C99.4534 57.4355 98.3834 56.3655 97.0634 56.3655V61.1455ZM61.0132 56.3655C59.6932 56.3655 58.6232 57.4355 58.6232 58.7555C58.6232 60.0754 59.6932 61.1455 61.0132 61.1455V56.3655ZM83.4053 61.1455C84.7253 61.1455 85.7953 60.0754 85.7953 58.7555C85.7953 57.4355 84.7253 56.3655 83.4053 56.3655V61.1455ZM61.0132 65.8036C59.6932 65.8036 58.6232 66.8736 58.6232 68.1936C58.6232 69.5135 59.6932 70.5836 61.0132 70.5836V65.8036ZM75.6579 70.5836C76.9779 70.5836 78.0479 69.5135 78.0479 68.1936C78.0479 66.8736 76.9779 65.8036 75.6579 65.8036V70.5836ZM127.907 147.999L129.234 146.011L127.689 144.98L126.308 146.223L127.907 147.999ZM103.824 200.324L102.433 202.267L103.913 203.326L105.328 202.181L103.824 200.324ZM111.925 193.889C112.923 193.026 113.033 191.517 112.169 190.518C111.306 189.52 109.797 189.41 108.798 190.274L111.925 193.889ZM102.273 198.774L101.135 200.876C101.985 201.336 103.028 201.239 103.778 200.631L102.273 198.774ZM112.039 168.379C112.754 167.269 112.433 165.79 111.323 165.076C110.213 164.362 108.734 164.682 108.02 165.792L112.039 168.379ZM127.683 144.462C126.585 143.729 125.101 144.025 124.368 145.123C123.635 146.221 123.931 147.705 125.029 148.438L127.683 144.462ZM122.512 176.664C121.665 177.677 121.8 179.184 122.813 180.031C123.825 180.877 125.332 180.743 126.179 179.73L122.512 176.664ZM122.362 12.3521C122.362 13.6721 123.432 14.7421 124.752 14.7421C126.072 14.7421 127.142 13.6721 127.142 12.3521H122.362ZM124.752 11.9648L122.362 11.9647V11.9648H124.752ZM130.158 17.6299C129.063 16.8923 127.578 17.1818 126.841 18.2765C126.103 19.3712 126.392 20.8565 127.487 21.594L130.158 17.6299ZM155.172 27.026C156.437 27.4055 157.769 26.6883 158.149 25.4241C158.528 24.1599 157.811 22.8274 156.547 22.4478L155.172 27.026ZM161.067 20.9334C160.287 21.9986 160.519 23.4941 161.584 24.2736C162.649 25.0531 164.145 24.8215 164.924 23.7563L161.067 20.9334ZM119.763 134.158L120.995 136.206L122.604 135.237L122.044 133.445L119.763 134.158ZM95.872 182.185L94.6436 184.235L95.6513 184.839L96.7449 184.41L95.872 182.185ZM123.557 114.963L124.457 112.748L124.441 112.742L124.426 112.736L123.557 114.963ZM118.698 116.707L117.077 114.951L116.301 115.668L116.309 116.723L118.698 116.707ZM122.904 111.199C121.681 110.702 120.288 111.292 119.791 112.515C119.295 113.738 119.884 115.132 121.107 115.628L122.904 111.199ZM128.158 138.858C127.523 140.015 127.946 141.468 129.103 142.103C130.26 142.738 131.713 142.315 132.348 141.158L128.158 138.858ZM119.985 159.196C120.812 158.167 120.647 156.663 119.617 155.836C118.588 155.01 117.084 155.175 116.257 156.204L119.985 159.196ZM94.3206 180.629L93.0922 182.68C93.7267 183.06 94.5016 183.125 95.1905 182.855L94.3206 180.629ZM119.444 134.65C120.575 133.97 120.94 132.501 120.259 131.37C119.579 130.239 118.11 129.874 116.979 130.555L119.444 134.65ZM143.343 71.8777L142.641 69.5931L141.899 69.8213L141.432 70.4425L143.343 71.8777ZM133.425 105.597C134.316 104.623 134.248 103.111 133.274 102.221C132.3 101.33 130.788 101.398 129.898 102.372L133.425 105.597ZM116.104 115.245C115.07 116.066 114.899 117.57 115.72 118.603C116.541 119.636 118.045 119.808 119.078 118.987L116.104 115.245ZM116.158 91.3445C115.102 92.1358 114.887 93.6337 115.678 94.6902C116.469 95.7467 117.967 95.9617 119.024 95.1704L116.158 91.3445ZM141.792 70.3284L141.09 68.0438C140.607 68.1921 140.184 68.4894 139.881 68.8932L141.792 70.3284ZM136.83 93.4409C136.112 94.5483 136.427 96.0283 137.534 96.7467C138.642 97.465 140.122 97.1497 140.84 96.0424L136.83 93.4409ZM19.0803 20.3814H117.588V15.6014H19.0803V20.3814ZM115.198 17.9914V193.287H119.978V17.9914H115.198ZM117.588 190.897H19.0803V195.677H117.588V190.897ZM21.4703 193.287V17.9914H16.6903V193.287H21.4703ZM28.9003 97.1316H107.774V92.3516H28.9003V97.1316ZM105.384 94.7416V125.24H110.164V94.7416H105.384ZM107.774 122.85H28.9003V127.63H107.774V122.85ZM31.2903 125.24V94.7416H26.5103V125.24H31.2903ZM61.0132 105.922H97.0634V101.142H61.0132V105.922ZM61.0132 115.36H75.6579V110.58H61.0132V115.36ZM50.55 109.989C50.55 113.261 47.8933 115.919 44.6093 115.919V120.699C50.5272 120.699 55.33 115.907 55.33 109.989H50.55ZM44.6093 115.919C41.3253 115.919 38.6686 113.261 38.6686 109.989H33.8886C33.8886 115.907 38.6914 120.699 44.6093 120.699V115.919ZM38.6686 109.989C38.6686 106.718 41.3253 104.06 44.6093 104.06V99.2799C38.6914 99.2799 33.8886 104.072 33.8886 109.989H38.6686ZM44.6093 104.06C47.8933 104.06 50.55 106.718 50.55 109.989H55.33C55.33 104.072 50.5272 99.2799 44.6093 99.2799V104.06ZM100.278 230.588C106.899 220.331 113.069 209.562 113.628 193.369L108.851 193.204C108.337 208.071 102.754 217.938 96.2624 227.995L100.278 230.588ZM86.7703 254.351C88.574 249.917 90.7423 245.64 93.253 241.563L89.1829 239.057C86.5338 243.358 84.2458 247.871 82.3426 252.55L86.7703 254.351ZM28.9003 52.355H107.774V47.575H28.9003V52.355ZM105.384 49.965V80.4637H110.164V49.965H105.384ZM107.774 78.0737H28.9003V82.8537H107.774V78.0737ZM31.2903 80.4637V49.965H26.5103V80.4637H31.2903ZM115.198 17.9914V36.0434H119.978V17.9914H115.198ZM117.588 33.6534H19.0803V38.4334H117.588V33.6534ZM21.4703 36.0434V17.9914H16.6903V36.0434H21.4703ZM19.0803 177.622H117.588V172.842H19.0803V177.622ZM115.198 175.232V193.284H119.978V175.232H115.198ZM117.588 190.894H19.0803V195.674H117.588V190.894ZM21.4703 193.284V175.232H16.6903V193.284H21.4703ZM61.0132 29.4074H75.6579V24.6274H61.0132V29.4074ZM70.2862 184.258C70.2862 185.329 69.4159 186.203 68.3356 186.203V190.983C72.0498 190.983 75.0662 187.975 75.0662 184.258H70.2862ZM68.3356 186.203C67.2552 186.203 66.3849 185.329 66.3849 184.258H61.6049C61.6049 187.975 64.6214 190.983 68.3356 190.983V186.203ZM66.3849 184.258C66.3849 183.187 67.2552 182.313 68.3356 182.313V177.533C64.6213 177.533 61.6049 180.541 61.6049 184.258H66.3849ZM68.3356 182.313C69.4159 182.313 70.2862 183.187 70.2862 184.258H75.0662C75.0662 180.541 72.0498 177.533 68.3356 177.533V182.313ZM6.96388 255.609C8.18909 250.959 9.13035 243.231 9.78536 234.165C10.4443 225.045 10.8239 214.408 10.8823 203.849C10.9407 193.292 10.6782 182.78 10.0473 173.915C9.42336 165.148 8.42359 157.711 6.90115 153.488L2.40441 155.109C3.67439 158.632 4.65259 165.448 5.27939 174.255C5.89927 182.965 6.16034 193.349 6.1024 203.822C6.04447 214.294 5.66782 224.824 5.01779 233.821C4.36385 242.872 3.44349 250.21 2.34167 254.391L6.96388 255.609ZM6.06168 156.229C14.1371 150.335 47.3758 125.209 52.3888 121.141L49.377 117.429C44.4615 121.418 11.3025 146.487 3.24388 152.368L6.06168 156.229ZM49.5584 121.274C49.5081 121.241 49.7545 121.405 50.0395 122.222C50.3044 122.981 50.5153 124.06 50.6126 125.437C50.8064 128.183 50.5273 131.799 49.638 135.721C47.8485 143.614 43.7175 152.215 36.7481 157.329L39.5757 161.183C47.8095 155.142 52.3661 145.307 54.2997 136.778C55.2721 132.489 55.6135 128.397 55.3807 125.101C55.2647 123.457 55.0005 121.931 54.5528 120.647C54.1251 119.421 53.4212 118.104 52.2074 117.296L49.5584 121.274ZM35.7719 159.256V167.002H40.5519V159.256H35.7719ZM38.1619 169.392C38.5005 169.392 39.0872 169.539 39.9251 170.149C40.7536 170.752 41.6925 171.712 42.6769 173.065C44.644 175.77 46.5981 179.774 48.1339 184.749C51.2015 194.687 52.4821 208.115 49.1792 221.909L53.8278 223.022C57.3508 208.309 55.994 194.006 52.7012 183.339C51.0567 178.012 48.8997 173.495 46.5425 170.254C45.3647 168.634 44.088 167.266 42.7374 166.284C41.3961 165.308 39.84 164.612 38.1619 164.612V169.392ZM49.2244 221.746C48.0838 225.357 48.1499 229.365 48.7727 233.2C49.3988 237.056 50.615 240.902 51.932 244.283C53.2521 247.672 54.6955 250.65 55.8071 252.779C56.3638 253.845 56.8396 254.702 57.1785 255.297C57.348 255.595 57.4835 255.827 57.5779 255.987C57.625 256.067 57.662 256.129 57.6878 256.172C57.7007 256.193 57.7108 256.21 57.7181 256.222C57.7217 256.228 57.7246 256.233 57.7268 256.236C57.7279 256.238 57.7288 256.24 57.7295 256.241C57.7298 256.241 57.7302 256.242 57.7304 256.242C57.7307 256.243 57.731 256.243 59.7722 255C61.8133 253.757 61.8135 253.757 61.8136 253.757C61.8136 253.757 61.8137 253.757 61.8137 253.757C61.8137 253.757 61.8135 253.757 61.8131 253.756C61.8123 253.755 61.8108 253.752 61.8086 253.749C61.8041 253.741 61.7968 253.729 61.7867 253.712C61.7665 253.679 61.7354 253.627 61.6941 253.557C61.6115 253.417 61.4884 253.206 61.3317 252.931C61.0182 252.381 60.5707 251.575 60.0442 250.566C58.9892 248.546 57.626 245.731 56.386 242.548C55.1429 239.356 54.0455 235.849 53.4909 232.434C52.933 228.998 52.9513 225.817 53.7825 223.185L49.2244 221.746ZM59.7722 252.61H4.65278V257.39H59.7722V252.61ZM42.2468 173.202C47.8229 182.334 52.2778 200.934 47.6278 220.357L52.2764 221.47C57.2075 200.872 52.5902 180.97 46.3264 170.711L42.2468 173.202ZM46.0682 123.316C48.2786 121.612 49.9661 120.299 50.8375 119.592L47.8257 115.88C47.0092 116.542 45.3706 117.819 43.1504 119.53L46.0682 123.316ZM48.0071 119.725C47.9568 119.692 48.2031 119.855 48.4881 120.672C48.753 121.432 48.964 122.511 49.0612 123.888C49.2551 126.633 48.9759 130.249 48.0867 134.172C46.2971 142.065 42.1661 150.666 35.1967 155.78L38.0244 159.633C46.2581 153.592 50.8147 143.757 52.7484 135.228C53.7207 130.94 54.0621 126.848 53.8293 123.551C53.7133 121.908 53.4491 120.382 53.0014 119.098C52.5738 117.872 51.8699 116.554 50.6561 115.746L48.0071 119.725ZM34.2205 157.706V163.343H39.0005V157.706H34.2205ZM9.19249 151.214C16.1974 145.996 27.6156 137.383 36.8241 130.391L33.9334 126.584C24.7305 133.572 13.3253 142.175 6.33704 147.38L9.19249 151.214ZM5.41253 254.06C7.32521 246.802 8.57983 231.844 9.08552 215.662C9.5938 199.398 9.35315 181.578 8.18131 168.454L3.42025 168.879C4.56923 181.747 4.81261 199.362 4.30785 215.513C3.80052 231.747 2.54506 246.184 0.790354 252.842L5.41253 254.06ZM90.2344 61.1455H97.0634V56.3655H90.2344V61.1455ZM61.0132 61.1455H83.4053V56.3655H61.0132V61.1455ZM61.0132 70.5836H75.6579V65.8036H61.0132V70.5836ZM50.55 65.2128C50.55 68.4845 47.8933 71.1423 44.6093 71.1423V75.9223C50.5272 75.9223 55.33 71.1305 55.33 65.2128H50.55ZM44.6093 71.1423C41.3253 71.1423 38.6686 68.4845 38.6686 65.2128H33.8886C33.8886 71.1305 38.6914 75.9223 44.6093 75.9223V71.1423ZM38.6686 65.2128C38.6686 61.941 41.3253 59.2833 44.6093 59.2833V54.5033C38.6914 54.5033 33.8886 59.295 33.8886 65.2128H38.6686ZM44.6093 59.2833C47.8933 59.2833 50.55 61.941 50.55 65.2128H55.33C55.33 59.295 50.5272 54.5033 44.6093 54.5033V59.2833ZM126.581 149.987C129.173 151.717 130.788 153.553 131.726 155.394C132.66 157.225 132.992 159.192 132.819 161.301C132.464 165.62 129.993 170.488 126.26 175.452C118.826 185.338 107.333 194.409 102.321 198.466L105.328 202.181C110.219 198.223 122.222 188.775 130.08 178.325C133.993 173.121 137.117 167.366 137.583 161.693C137.82 158.807 137.369 155.935 135.985 153.222C134.606 150.518 132.369 148.103 129.234 146.011L126.581 149.987ZM105.215 198.38C105.503 198.586 105.559 198.767 105.491 198.633C105.443 198.538 105.359 198.334 105.269 197.99C105.089 197.307 104.936 196.274 104.898 194.907C104.823 192.186 105.209 188.348 106.542 183.734C109.2 174.532 115.609 162.289 129.507 149.775L126.308 146.223C111.782 159.303 104.868 172.305 101.95 182.408C100.494 187.446 100.029 191.777 100.12 195.039C100.165 196.664 100.349 198.077 100.646 199.206C100.794 199.769 100.983 200.313 101.229 200.797C101.454 201.241 101.825 201.832 102.433 202.267L105.215 198.38ZM108.798 190.274C105.549 193.084 102.683 195.364 100.767 196.918L103.778 200.631C105.66 199.104 108.603 196.762 111.925 193.889L108.798 190.274ZM103.411 196.673C103.605 196.778 103.143 196.607 102.933 194.919C102.746 193.417 102.843 191.256 103.375 188.548C104.433 183.159 107.136 175.999 112.039 168.379L108.02 165.792C102.83 173.857 99.8725 181.576 98.6842 187.627C98.0927 190.64 97.9199 193.34 98.1898 195.509C98.4367 197.493 99.1582 199.806 101.135 200.876L103.411 196.673ZM125.029 148.438C127.865 150.33 129.534 152.35 130.426 154.372C131.317 156.39 131.515 158.589 131.113 160.976C130.29 165.862 126.993 171.303 122.512 176.664L126.179 179.73C130.81 174.19 134.787 167.941 135.826 161.77C136.355 158.628 136.131 155.457 134.799 152.441C133.47 149.43 131.116 146.753 127.683 144.462L125.029 148.438ZM139.529 36.0248C139.529 36.9675 138.763 37.7372 137.811 37.7372V42.5172C141.397 42.5172 144.309 39.6135 144.309 36.0248H139.529ZM137.811 37.7372C136.859 37.7372 136.093 36.9675 136.093 36.0248H131.313C131.313 39.6135 134.225 42.5172 137.811 42.5172V37.7372ZM136.093 36.0248C136.093 35.082 136.859 34.3123 137.811 34.3123V29.5323C134.225 29.5323 131.313 32.4361 131.313 36.0248H136.093ZM137.811 34.3123C138.763 34.3123 139.529 35.0821 139.529 36.0248H144.309C144.309 32.4361 141.397 29.5323 137.811 29.5323V34.3123ZM127.142 12.3521C127.142 12.3519 127.142 12.3516 127.142 12.3514C127.142 12.3511 127.142 12.3509 127.142 12.3506C127.142 12.3504 127.142 12.3501 127.142 12.3499C127.142 12.3496 127.142 12.3494 127.142 12.3491C127.142 12.3489 127.142 12.3486 127.142 12.3484C127.142 12.3481 127.142 12.3479 127.142 12.3476C127.142 12.3474 127.142 12.3472 127.142 12.3469C127.142 12.3467 127.142 12.3464 127.142 12.3462C127.142 12.3459 127.142 12.3457 127.142 12.3454C127.142 12.3452 127.142 12.3449 127.142 12.3447C127.142 12.3444 127.142 12.3442 127.142 12.3439C127.142 12.3437 127.142 12.3434 127.142 12.3432C127.142 12.3429 127.142 12.3427 127.142 12.3424C127.142 12.3422 127.142 12.3419 127.142 12.3417C127.142 12.3414 127.142 12.3412 127.142 12.3409C127.142 12.3407 127.142 12.3404 127.142 12.3402C127.142 12.3399 127.142 12.3397 127.142 12.3395C127.142 12.3392 127.142 12.339 127.142 12.3387C127.142 12.3385 127.142 12.3382 127.142 12.338C127.142 12.3377 127.142 12.3375 127.142 12.3372C127.142 12.337 127.142 12.3367 127.142 12.3365C127.142 12.3362 127.142 12.336 127.142 12.3357C127.142 12.3355 127.142 12.3352 127.142 12.335C127.142 12.3347 127.142 12.3345 127.142 12.3342C127.142 12.334 127.142 12.3337 127.142 12.3335C127.142 12.3332 127.142 12.333 127.142 12.3327C127.142 12.3325 127.142 12.3322 127.142 12.332C127.142 12.3317 127.142 12.3315 127.142 12.3312C127.142 12.331 127.142 12.3307 127.142 12.3305C127.142 12.3303 127.142 12.33 127.142 12.3298C127.142 12.3295 127.142 12.3293 127.142 12.329C127.142 12.3288 127.142 12.3285 127.142 12.3283C127.142 12.328 127.142 12.3278 127.142 12.3275C127.142 12.3273 127.142 12.327 127.142 12.3268C127.142 12.3265 127.142 12.3263 127.142 12.326C127.142 12.3258 127.142 12.3255 127.142 12.3253C127.142 12.325 127.142 12.3248 127.142 12.3245C127.142 12.3243 127.142 12.324 127.142 12.3238C127.142 12.3235 127.142 12.3233 127.142 12.323C127.142 12.3228 127.142 12.3225 127.142 12.3223C127.142 12.322 127.142 12.3218 127.142 12.3215C127.142 12.3213 127.142 12.321 127.142 12.3208C127.142 12.3205 127.142 12.3203 127.142 12.32C127.142 12.3198 127.142 12.3195 127.142 12.3193C127.142 12.319 127.142 12.3188 127.142 12.3185C127.142 12.3183 127.142 12.3181 127.142 12.3178C127.142 12.3176 127.142 12.3173 127.142 12.3171C127.142 12.3168 127.142 12.3166 127.142 12.3163C127.142 12.3161 127.142 12.3158 127.142 12.3156C127.142 12.3153 127.142 12.3151 127.142 12.3148C127.142 12.3146 127.142 12.3143 127.142 12.3141C127.142 12.3138 127.142 12.3136 127.142 12.3133C127.142 12.3131 127.142 12.3128 127.142 12.3126C127.142 12.3123 127.142 12.3121 127.142 12.3118C127.142 12.3116 127.142 12.3113 127.142 12.3111C127.142 12.3108 127.142 12.3106 127.142 12.3103C127.142 12.3101 127.142 12.3098 127.142 12.3096C127.142 12.3093 127.142 12.3091 127.142 12.3088C127.142 12.3086 127.142 12.3083 127.142 12.3081C127.142 12.3078 127.142 12.3076 127.142 12.3073C127.142 12.3071 127.142 12.3068 127.142 12.3066C127.142 12.3063 127.142 12.3061 127.142 12.3058C127.142 12.3056 127.142 12.3053 127.142 12.3051C127.142 12.3048 127.142 12.3046 127.142 12.3043C127.142 12.3041 127.142 12.3038 127.142 12.3036C127.142 12.3033 127.142 12.3031 127.142 12.3028C127.142 12.3026 127.142 12.3023 127.142 12.3021C127.142 12.3018 127.142 12.3016 127.142 12.3013C127.142 12.3011 127.142 12.3008 127.142 12.3006C127.142 12.3003 127.142 12.3001 127.142 12.2998C127.142 12.2996 127.142 12.2993 127.142 12.2991C127.142 12.2988 127.142 12.2986 127.142 12.2983C127.142 12.2981 127.142 12.2978 127.142 12.2976C127.142 12.2973 127.142 12.2971 127.142 12.2968C127.142 12.2966 127.142 12.2963 127.142 12.2961C127.142 12.2958 127.142 12.2956 127.142 12.2953C127.142 12.2951 127.142 12.2948 127.142 12.2946C127.142 12.2943 127.142 12.2941 127.142 12.2939C127.142 12.2936 127.142 12.2934 127.142 12.2931C127.142 12.2929 127.142 12.2926 127.142 12.2924C127.142 12.2921 127.142 12.2919 127.142 12.2916C127.142 12.2914 127.142 12.2911 127.142 12.2909C127.142 12.2906 127.142 12.2904 127.142 12.2901C127.142 12.2899 127.142 12.2896 127.142 12.2894C127.142 12.2891 127.142 12.2889 127.142 12.2886C127.142 12.2884 127.142 12.2881 127.142 12.2879C127.142 12.2876 127.142 12.2874 127.142 12.2871C127.142 12.2869 127.142 12.2866 127.142 12.2864C127.142 12.2861 127.142 12.2859 127.142 12.2856C127.142 12.2854 127.142 12.2851 127.142 12.2849C127.142 12.2846 127.142 12.2844 127.142 12.2841C127.142 12.2839 127.142 12.2836 127.142 12.2834C127.142 12.2831 127.142 12.2829 127.142 12.2826C127.142 12.2824 127.142 12.2821 127.142 12.2819C127.142 12.2816 127.142 12.2814 127.142 12.2811C127.142 12.2809 127.142 12.2806 127.142 12.2803C127.142 12.2801 127.142 12.2798 127.142 12.2796C127.142 12.2793 127.142 12.2791 127.142 12.2788C127.142 12.2786 127.142 12.2783 127.142 12.2781C127.142 12.2778 127.142 12.2776 127.142 12.2773C127.142 12.2771 127.142 12.2768 127.142 12.2766C127.142 12.2763 127.142 12.2761 127.142 12.2758C127.142 12.2756 127.142 12.2753 127.142 12.2751C127.142 12.2748 127.142 12.2746 127.142 12.2743C127.142 12.2741 127.142 12.2738 127.142 12.2736C127.142 12.2733 127.142 12.2731 127.142 12.2728C127.142 12.2726 127.142 12.2723 127.142 12.2721C127.142 12.2718 127.142 12.2716 127.142 12.2713C127.142 12.2711 127.142 12.2708 127.142 12.2706C127.142 12.2703 127.142 12.2701 127.142 12.2698C127.142 12.2696 127.142 12.2693 127.142 12.2691C127.142 12.2688 127.142 12.2686 127.142 12.2683C127.142 12.2681 127.142 12.2678 127.142 12.2676C127.142 12.2673 127.142 12.2671 127.142 12.2668C127.142 12.2666 127.142 12.2663 127.142 12.2661C127.142 12.2658 127.142 12.2656 127.142 12.2653C127.142 12.2651 127.142 12.2648 127.142 12.2646C127.142 12.2643 127.142 12.2641 127.142 12.2638C127.142 12.2636 127.142 12.2633 127.142 12.2631C127.142 12.2628 127.142 12.2626 127.142 12.2623C127.142 12.2621 127.142 12.2618 127.142 12.2616C127.142 12.2613 127.142 12.2611 127.142 12.2608C127.142 12.2606 127.142 12.2603 127.142 12.2601C127.142 12.2598 127.142 12.2596 127.142 12.2593C127.142 12.2591 127.142 12.2588 127.142 12.2586C127.142 12.2583 127.142 12.2581 127.142 12.2578C127.142 12.2576 127.142 12.2573 127.142 12.2571C127.142 12.2568 127.142 12.2566 127.142 12.2563C127.142 12.2561 127.142 12.2558 127.142 12.2556C127.142 12.2553 127.142 12.255 127.142 12.2548C127.142 12.2545 127.142 12.2543 127.142 12.254C127.142 12.2538 127.142 12.2535 127.142 12.2533C127.142 12.253 127.142 12.2528 127.142 12.2525C127.142 12.2523 127.142 12.252 127.142 12.2518C127.142 12.2515 127.142 12.2513 127.142 12.251C127.142 12.2508 127.142 12.2505 127.142 12.2503C127.142 12.25 127.142 12.2498 127.142 12.2495C127.142 12.2493 127.142 12.249 127.142 12.2488C127.142 12.2485 127.142 12.2483 127.142 12.248C127.142 12.2478 127.142 12.2475 127.142 12.2473C127.142 12.247 127.142 12.2468 127.142 12.2465C127.142 12.2463 127.142 12.246 127.142 12.2458C127.142 12.2455 127.142 12.2453 127.142 12.245C127.142 12.2448 127.142 12.2445 127.142 12.2443C127.142 12.244 127.142 12.2438 127.142 12.2435C127.142 12.2433 127.142 12.243 127.142 12.2428C127.142 12.2425 127.142 12.2423 127.142 12.242C127.142 12.2417 127.142 12.2415 127.142 12.2412C127.142 12.241 127.142 12.2407 127.142 12.2405C127.142 12.2402 127.142 12.24 127.142 12.2397C127.142 12.2395 127.142 12.2392 127.142 12.239C127.142 12.2387 127.142 12.2385 127.142 12.2382C127.142 12.238 127.142 12.2377 127.142 12.2375C127.142 12.2372 127.142 12.237 127.142 12.2367C127.142 12.2365 127.142 12.2362 127.142 12.236C127.142 12.2357 127.142 12.2355 127.142 12.2352C127.142 12.235 127.142 12.2347 127.142 12.2345C127.142 12.2342 127.142 12.234 127.142 12.2337C127.142 12.2335 127.142 12.2332 127.142 12.233C127.142 12.2327 127.142 12.2325 127.142 12.2322C127.142 12.232 127.142 12.2317 127.142 12.2314C127.142 12.2312 127.142 12.2309 127.142 12.2307C127.142 12.2304 127.142 12.2302 127.142 12.2299C127.142 12.2297 127.142 12.2294 127.142 12.2292C127.142 12.2289 127.142 12.2287 127.142 12.2284C127.142 12.2282 127.142 12.2279 127.142 12.2277C127.142 12.2274 127.142 12.2272 127.142 12.2269C127.142 12.2267 127.142 12.2264 127.142 12.2262C127.142 12.2259 127.142 12.2257 127.142 12.2254C127.142 12.2252 127.142 12.2249 127.142 12.2247C127.142 12.2244 127.142 12.2242 127.142 12.2239C127.142 12.2237 127.142 12.2234 127.142 12.2232C127.142 12.2229 127.142 12.2226 127.142 12.2224C127.142 12.2221 127.142 12.2219 127.142 12.2216C127.142 12.2214 127.142 12.2211 127.142 12.2209C127.142 12.2206 127.142 12.2204 127.142 12.2201C127.142 12.2199 127.142 12.2196 127.142 12.2194C127.142 12.2191 127.142 12.2189 127.142 12.2186C127.142 12.2184 127.142 12.2181 127.142 12.2179C127.142 12.2176 127.142 12.2174 127.142 12.2171C127.142 12.2169 127.142 12.2166 127.142 12.2164C127.142 12.2161 127.142 12.2159 127.142 12.2156C127.142 12.2154 127.142 12.2151 127.142 12.2149C127.142 12.2146 127.142 12.2143 127.142 12.2141C127.142 12.2138 127.142 12.2136 127.142 12.2133C127.142 12.2131 127.142 12.2128 127.142 12.2126C127.142 12.2123 127.142 12.2121 127.142 12.2118C127.142 12.2116 127.142 12.2113 127.142 12.2111C127.142 12.2108 127.142 12.2106 127.142 12.2103C127.142 12.2101 127.142 12.2098 127.142 12.2096C127.142 12.2093 127.142 12.2091 127.142 12.2088C127.142 12.2086 127.142 12.2083 127.142 12.2081C127.142 12.2078 127.142 12.2075 127.142 12.2073C127.142 12.207 127.142 12.2068 127.142 12.2065C127.142 12.2063 127.142 12.206 127.142 12.2058C127.142 12.2055 127.142 12.2053 127.142 12.205C127.142 12.2048 127.142 12.2045 127.142 12.2043C127.142 12.204 127.142 12.2038 127.142 12.2035C127.142 12.2033 127.142 12.203 127.142 12.2028C127.142 12.2025 127.142 12.2023 127.142 12.202C127.142 12.2018 127.142 12.2015 127.142 12.2013C127.142 12.201 127.142 12.2007 127.142 12.2005C127.142 12.2002 127.142 12.2 127.142 12.1997C127.142 12.1995 127.142 12.1992 127.142 12.199C127.142 12.1987 127.142 12.1985 127.142 12.1982C127.142 12.198 127.142 12.1977 127.142 12.1975C127.142 12.1972 127.142 12.197 127.142 12.1967C127.142 12.1965 127.142 12.1962 127.142 12.196C127.142 12.1957 127.142 12.1955 127.142 12.1952C127.142 12.195 127.142 12.1947 127.142 12.1944C127.142 12.1942 127.142 12.1939 127.142 12.1937C127.142 12.1934 127.142 12.1932 127.142 12.1929C127.142 12.1927 127.142 12.1924 127.142 12.1922C127.142 12.1919 127.142 12.1917 127.142 12.1914C127.142 12.1912 127.142 12.1909 127.142 12.1907C127.142 12.1904 127.142 12.1902 127.142 12.1899C127.142 12.1897 127.142 12.1894 127.142 12.1892C127.142 12.1889 127.142 12.1886 127.142 12.1884C127.142 12.1881 127.142 12.1879 127.142 12.1876C127.142 12.1874 127.142 12.1871 127.142 12.1869C127.142 12.1866 127.142 12.1864 127.142 12.1861C127.142 12.1859 127.142 12.1856 127.142 12.1854C127.142 12.1851 127.142 12.1849 127.142 12.1846C127.142 12.1844 127.142 12.1841 127.142 12.1839C127.142 12.1836 127.142 12.1834 127.142 12.1831C127.142 12.1828 127.142 12.1826 127.142 12.1823C127.142 12.1821 127.142 12.1818 127.142 12.1816C127.142 12.1813 127.142 12.1811 127.142 12.1808C127.142 12.1806 127.142 12.1803 127.142 12.1801C127.142 12.1798 127.142 12.1796 127.142 12.1793C127.142 12.1791 127.142 12.1788 127.142 12.1786C127.142 12.1783 127.142 12.1781 127.142 12.1778C127.142 12.1775 127.142 12.1773 127.142 12.177C127.142 12.1768 127.142 12.1765 127.142 12.1763C127.142 12.176 127.142 12.1758 127.142 12.1755C127.142 12.1753 127.142 12.175 127.142 12.1748C127.142 12.1745 127.142 12.1743 127.142 12.174C127.142 12.1738 127.142 12.1735 127.142 12.1733C127.142 12.173 127.142 12.1728 127.142 12.1725C127.142 12.1722 127.142 12.172 127.142 12.1717C127.142 12.1715 127.142 12.1712 127.142 12.171C127.142 12.1707 127.142 12.1705 127.142 12.1702C127.142 12.17 127.142 12.1697 127.142 12.1695C127.142 12.1692 127.142 12.169 127.142 12.1687C127.142 12.1685 127.142 12.1682 127.142 12.168C127.142 12.1677 127.142 12.1675 127.142 12.1672C127.142 12.1669 127.142 12.1667 127.142 12.1664C127.142 12.1662 127.142 12.1659 127.142 12.1657C127.142 12.1654 127.142 12.1652 127.142 12.1649C127.142 12.1647 127.142 12.1644 127.142 12.1642C127.142 12.1639 127.142 12.1637 127.142 12.1634C127.142 12.1632 127.142 12.1629 127.142 12.1627C127.142 12.1624 127.142 12.1621 127.142 12.1619C127.142 12.1616 127.142 12.1614 127.142 12.1611C127.142 12.1609 127.142 12.1606 127.142 12.1604C127.142 12.1601 127.142 12.1599 127.142 12.1596C127.142 12.1594 127.142 12.1591 127.142 12.1589C127.142 12.1586 127.142 12.1584 127.142 12.1581C127.142 12.1579 127.142 12.1576 127.142 12.1573C127.142 12.1571 127.142 12.1568 127.142 12.1566C127.142 12.1563 127.142 12.1561 127.142 12.1558C127.142 12.1556 127.142 12.1553 127.142 12.1551C127.142 12.1548 127.142 12.1546 127.142 12.1543C127.142 12.1541 127.142 12.1538 127.142 12.1536C127.142 12.1533 127.142 12.1531 127.142 12.1528C127.142 12.1525 127.142 12.1523 127.142 12.152C127.142 12.1518 127.142 12.1515 127.142 12.1513C127.142 12.151 127.142 12.1508 127.142 12.1505C127.142 12.1503 127.142 12.15 127.142 12.1498C127.142 12.1495 127.142 12.1493 127.142 12.149C127.142 12.1488 127.142 12.1485 127.142 12.1482C127.142 12.148 127.142 12.1477 127.142 12.1475C127.142 12.1472 127.142 12.147 127.142 12.1467C127.142 12.1465 127.142 12.1462 127.142 12.146C127.142 12.1457 127.142 12.1455 127.142 12.1452C127.142 12.145 127.142 12.1447 127.142 12.1445C127.142 12.1442 127.142 12.1439 127.142 12.1437C127.142 12.1434 127.142 12.1432 127.142 12.1429C127.142 12.1427 127.142 12.1424 127.142 12.1422C127.142 12.1419 127.142 12.1417 127.142 12.1414C127.142 12.1412 127.142 12.1409 127.142 12.1407C127.142 12.1404 127.142 12.1402 127.142 12.1399C127.142 12.1396 127.142 12.1394 127.142 12.1391C127.142 12.1389 127.142 12.1386 127.142 12.1384C127.142 12.1381 127.142 12.1379 127.142 12.1376C127.142 12.1374 127.142 12.1371 127.142 12.1369C127.142 12.1366 127.142 12.1364 127.142 12.1361C127.142 12.1359 127.142 12.1356 127.142 12.1353C127.142 12.1351 127.142 12.1348 127.142 12.1346C127.142 12.1343 127.142 12.1341 127.142 12.1338C127.142 12.1336 127.142 12.1333 127.142 12.1331C127.142 12.1328 127.142 12.1326 127.142 12.1323C127.142 12.1321 127.142 12.1318 127.142 12.1316C127.142 12.1313 127.142 12.131 127.142 12.1308C127.142 12.1305 127.142 12.1303 127.142 12.13C127.142 12.1298 127.142 12.1295 127.142 12.1293C127.142 12.129 127.142 12.1288 127.142 12.1285C127.142 12.1283 127.142 12.128 127.142 12.1278C127.142 12.1275 127.142 12.1272 127.142 12.127C127.142 12.1267 127.142 12.1265 127.142 12.1262C127.142 12.126 127.142 12.1257 127.142 12.1255C127.142 12.1252 127.142 12.125 127.142 12.1247C127.142 12.1245 127.142 12.1242 127.142 12.124C127.142 12.1237 127.142 12.1235 127.142 12.1232C127.142 12.1229 127.142 12.1227 127.142 12.1224C127.142 12.1222 127.142 12.1219 127.142 12.1217C127.142 12.1214 127.142 12.1212 127.142 12.1209C127.142 12.1207 127.142 12.1204 127.142 12.1202C127.142 12.1199 127.142 12.1197 127.142 12.1194C127.142 12.1191 127.142 12.1189 127.142 12.1186C127.142 12.1184 127.142 12.1181 127.142 12.1179C127.142 12.1176 127.142 12.1174 127.142 12.1171C127.142 12.1169 127.142 12.1166 127.142 12.1164C127.142 12.1161 127.142 12.1159 127.142 12.1156C127.142 12.1153 127.142 12.1151 127.142 12.1148C127.142 12.1146 127.142 12.1143 127.142 12.1141C127.142 12.1138 127.142 12.1136 127.142 12.1133C127.142 12.1131 127.142 12.1128 127.142 12.1126C127.142 12.1123 127.142 12.1121 127.142 12.1118C127.142 12.1115 127.142 12.1113 127.142 12.111C127.142 12.1108 127.142 12.1105 127.142 12.1103C127.142 12.11 127.142 12.1098 127.142 12.1095C127.142 12.1093 127.142 12.109 127.142 12.1088C127.142 12.1085 127.142 12.1083 127.142 12.108C127.142 12.1077 127.142 12.1075 127.142 12.1072C127.142 12.107 127.142 12.1067 127.142 12.1065C127.142 12.1062 127.142 12.106 127.142 12.1057C127.142 12.1055 127.142 12.1052 127.142 12.105C127.142 12.1047 127.142 12.1045 127.142 12.1042C127.142 12.1039 127.142 12.1037 127.142 12.1034C127.142 12.1032 127.142 12.1029 127.142 12.1027C127.142 12.1024 127.142 12.1022 127.142 12.1019C127.142 12.1017 127.142 12.1014 127.142 12.1012C127.142 12.1009 127.142 12.1007 127.142 12.1004C127.142 12.1001 127.142 12.0999 127.142 12.0996C127.142 12.0994 127.142 12.0991 127.142 12.0989C127.142 12.0986 127.142 12.0984 127.142 12.0981C127.142 12.0979 127.142 12.0976 127.142 12.0974C127.142 12.0971 127.142 12.0969 127.142 12.0966C127.142 12.0963 127.142 12.0961 127.142 12.0958C127.142 12.0956 127.142 12.0953 127.142 12.0951C127.142 12.0948 127.142 12.0946 127.142 12.0943C127.142 12.0941 127.142 12.0938 127.142 12.0936C127.142 12.0933 127.142 12.093 127.142 12.0928C127.142 12.0925 127.142 12.0923 127.142 12.092C127.142 12.0918 127.142 12.0915 127.142 12.0913C127.142 12.091 127.142 12.0908 127.142 12.0905C127.142 12.0903 127.142 12.09 127.142 12.0898C127.142 12.0895 127.142 12.0892 127.142 12.089C127.142 12.0887 127.142 12.0885 127.142 12.0882C127.142 12.088 127.142 12.0877 127.142 12.0875C127.142 12.0872 127.142 12.087 127.142 12.0867C127.142 12.0865 127.142 12.0862 127.142 12.086C127.142 12.0857 127.142 12.0854 127.142 12.0852C127.142 12.0849 127.142 12.0847 127.142 12.0844C127.142 12.0842 127.142 12.0839 127.142 12.0837C127.142 12.0834 127.142 12.0832 127.142 12.0829C127.142 12.0827 127.142 12.0824 127.142 12.0821C127.142 12.0819 127.142 12.0816 127.142 12.0814C127.142 12.0811 127.142 12.0809 127.142 12.0806C127.142 12.0804 127.142 12.0801 127.142 12.0799C127.142 12.0796 127.142 12.0794 127.142 12.0791C127.142 12.0788 127.142 12.0786 127.142 12.0783C127.142 12.0781 127.142 12.0778 127.142 12.0776C127.142 12.0773 127.142 12.0771 127.142 12.0768C127.142 12.0766 127.142 12.0763 127.142 12.0761C127.142 12.0758 127.142 12.0756 127.142 12.0753C127.142 12.075 127.142 12.0748 127.142 12.0745C127.142 12.0743 127.142 12.074 127.142 12.0738C127.142 12.0735 127.142 12.0733 127.142 12.073C127.142 12.0728 127.142 12.0725 127.142 12.0723C127.142 12.072 127.142 12.0717 127.142 12.0715C127.142 12.0712 127.142 12.071 127.142 12.0707C127.142 12.0705 127.142 12.0702 127.142 12.07C127.142 12.0697 127.142 12.0695 127.142 12.0692C127.142 12.069 127.142 12.0687 127.142 12.0684C127.142 12.0682 127.142 12.0679 127.142 12.0677C127.142 12.0674 127.142 12.0672 127.142 12.0669C127.142 12.0667 127.142 12.0664 127.142 12.0662C127.142 12.0659 127.142 12.0657 127.142 12.0654C127.142 12.0651 127.142 12.0649 127.142 12.0646C127.142 12.0644 127.142 12.0641 127.142 12.0639C127.142 12.0636 127.142 12.0634 127.142 12.0631C127.142 12.0629 127.142 12.0626 127.142 12.0624C127.142 12.0621 127.142 12.0618 127.142 12.0616C127.142 12.0613 127.142 12.0611 127.142 12.0608C127.142 12.0606 127.142 12.0603 127.142 12.0601C127.142 12.0598 127.142 12.0596 127.142 12.0593C127.142 12.0591 127.142 12.0588 127.142 12.0585C127.142 12.0583 127.142 12.058 127.142 12.0578C127.142 12.0575 127.142 12.0573 127.142 12.057C127.142 12.0568 127.142 12.0565 127.142 12.0563C127.142 12.056 127.142 12.0558 127.142 12.0555C127.142 12.0552 127.142 12.055 127.142 12.0547C127.142 12.0545 127.142 12.0542 127.142 12.054C127.142 12.0537 127.142 12.0535 127.142 12.0532C127.142 12.053 127.142 12.0527 127.142 12.0525C127.142 12.0522 127.142 12.0519 127.142 12.0517C127.142 12.0514 127.142 12.0512 127.142 12.0509C127.142 12.0507 127.142 12.0504 127.142 12.0502C127.142 12.0499 127.142 12.0497 127.142 12.0494C127.142 12.0492 127.142 12.0489 127.142 12.0486C127.142 12.0484 127.142 12.0481 127.142 12.0479C127.142 12.0476 127.142 12.0474 127.142 12.0471C127.142 12.0469 127.142 12.0466 127.142 12.0464C127.142 12.0461 127.142 12.0459 127.142 12.0456C127.142 12.0453 127.142 12.0451 127.142 12.0448C127.142 12.0446 127.142 12.0443 127.142 12.0441C127.142 12.0438 127.142 12.0436 127.142 12.0433C127.142 12.0431 127.142 12.0428 127.142 12.0426C127.142 12.0423 127.142 12.042 127.142 12.0418C127.142 12.0415 127.142 12.0413 127.142 12.041C127.142 12.0408 127.142 12.0405 127.142 12.0403C127.142 12.04 127.142 12.0398 127.142 12.0395C127.142 12.0393 127.142 12.039 127.142 12.0387C127.142 12.0385 127.142 12.0382 127.142 12.038C127.142 12.0377 127.142 12.0375 127.142 12.0372C127.142 12.037 127.142 12.0367 127.142 12.0365C127.142 12.0362 127.142 12.036 127.142 12.0357C127.142 12.0354 127.142 12.0352 127.142 12.0349C127.142 12.0347 127.142 12.0344 127.142 12.0342C127.142 12.0339 127.142 12.0337 127.142 12.0334C127.142 12.0332 127.142 12.0329 127.142 12.0327C127.142 12.0324 127.142 12.0321 127.142 12.0319C127.142 12.0316 127.142 12.0314 127.142 12.0311C127.142 12.0309 127.142 12.0306 127.142 12.0304C127.142 12.0301 127.142 12.0299 127.142 12.0296C127.142 12.0293 127.142 12.0291 127.142 12.0288C127.142 12.0286 127.142 12.0283 127.142 12.0281C127.142 12.0278 127.142 12.0276 127.142 12.0273C127.142 12.0271 127.142 12.0268 127.142 12.0266C127.142 12.0263 127.142 12.026 127.142 12.0258C127.142 12.0255 127.142 12.0253 127.142 12.025C127.142 12.0248 127.142 12.0245 127.142 12.0243C127.142 12.024 127.142 12.0238 127.142 12.0235C127.142 12.0233 127.142 12.023 127.142 12.0227C127.142 12.0225 127.142 12.0222 127.142 12.022C127.142 12.0217 127.142 12.0215 127.142 12.0212C127.142 12.021 127.142 12.0207 127.142 12.0205C127.142 12.0202 127.142 12.0199 127.142 12.0197C127.142 12.0194 127.142 12.0192 127.142 12.0189C127.142 12.0187 127.142 12.0184 127.142 12.0182C127.142 12.0179 127.142 12.0177 127.142 12.0174C127.142 12.0172 127.142 12.0169 127.142 12.0166C127.142 12.0164 127.142 12.0161 127.142 12.0159C127.142 12.0156 127.142 12.0154 127.142 12.0151C127.142 12.0149 127.142 12.0146 127.142 12.0144C127.142 12.0141 127.142 12.0139 127.142 12.0136C127.142 12.0133 127.142 12.0131 127.142 12.0128C127.142 12.0126 127.142 12.0123 127.142 12.0121C127.142 12.0118 127.142 12.0116 127.142 12.0113C127.142 12.0111 127.142 12.0108 127.142 12.0105C127.142 12.0103 127.142 12.01 127.142 12.0098C127.142 12.0095 127.142 12.0093 127.142 12.009C127.142 12.0088 127.142 12.0085 127.142 12.0083C127.142 12.008 127.142 12.0078 127.142 12.0075C127.142 12.0072 127.142 12.007 127.142 12.0067C127.142 12.0065 127.142 12.0062 127.142 12.006C127.142 12.0057 127.142 12.0055 127.142 12.0052C127.142 12.005 127.142 12.0047 127.142 12.0044C127.142 12.0042 127.142 12.0039 127.142 12.0037C127.142 12.0034 127.142 12.0032 127.142 12.0029C127.142 12.0027 127.142 12.0024 127.142 12.0022C127.142 12.0019 127.142 12.0017 127.142 12.0014C127.142 12.0011 127.142 12.0009 127.142 12.0006C127.142 12.0004 127.142 12.0001 127.142 11.9999C127.142 11.9996 127.142 11.9994 127.142 11.9991C127.142 11.9989 127.142 11.9986 127.142 11.9984C127.142 11.9981 127.142 11.9978 127.142 11.9976C127.142 11.9973 127.142 11.9971 127.142 11.9968C127.142 11.9966 127.142 11.9963 127.142 11.9961C127.142 11.9958 127.142 11.9956 127.142 11.9953C127.142 11.995 127.142 11.9948 127.142 11.9945C127.142 11.9943 127.142 11.994 127.142 11.9938C127.142 11.9935 127.142 11.9933 127.142 11.993C127.142 11.9928 127.142 11.9925 127.142 11.9923C127.142 11.992 127.142 11.9917 127.142 11.9915C127.142 11.9912 127.142 11.991 127.142 11.9907C127.142 11.9905 127.142 11.9902 127.142 11.99C127.142 11.9897 127.142 11.9895 127.142 11.9892C127.142 11.9889 127.142 11.9887 127.142 11.9884C127.142 11.9882 127.142 11.9879 127.142 11.9877C127.142 11.9874 127.142 11.9872 127.142 11.9869C127.142 11.9867 127.142 11.9864 127.142 11.9862C127.142 11.9859 127.142 11.9856 127.142 11.9854C127.142 11.9851 127.142 11.9849 127.142 11.9846C127.142 11.9844 127.142 11.9841 127.142 11.9839C127.142 11.9836 127.142 11.9834 127.142 11.9831C127.142 11.9828 127.142 11.9826 127.142 11.9823C127.142 11.9821 127.142 11.9818 127.142 11.9816C127.142 11.9813 127.142 11.9811 127.142 11.9808C127.142 11.9806 127.142 11.9803 127.142 11.9801C127.142 11.9798 127.142 11.9795 127.142 11.9793C127.142 11.979 127.142 11.9788 127.142 11.9785C127.142 11.9783 127.142 11.978 127.142 11.9778C127.142 11.9775 127.142 11.9773 127.142 11.977C127.142 11.9767 127.142 11.9765 127.142 11.9762C127.142 11.976 127.142 11.9757 127.142 11.9755C127.142 11.9752 127.142 11.975 127.142 11.9747C127.142 11.9745 127.142 11.9742 127.142 11.974C127.142 11.9737 127.142 11.9734 127.142 11.9732C127.142 11.9729 127.142 11.9727 127.142 11.9724C127.142 11.9722 127.142 11.9719 127.142 11.9717C127.142 11.9714 127.142 11.9712 127.142 11.9709C127.142 11.9706 127.142 11.9704 127.142 11.9701C127.142 11.9699 127.142 11.9696 127.142 11.9694C127.142 11.9691 127.142 11.9689 127.142 11.9686C127.142 11.9684 127.142 11.9681 127.142 11.9679C127.142 11.9676 127.142 11.9673 127.142 11.9671C127.142 11.9668 127.142 11.9666 127.142 11.9663C127.142 11.9661 127.142 11.9658 127.142 11.9656C127.142 11.9653 127.142 11.9651 127.142 11.9648H122.362C122.362 11.9651 122.362 11.9653 122.362 11.9656C122.362 11.9658 122.362 11.9661 122.362 11.9663C122.362 11.9666 122.362 11.9668 122.362 11.9671C122.362 11.9673 122.362 11.9676 122.362 11.9679C122.362 11.9681 122.362 11.9684 122.362 11.9686C122.362 11.9689 122.362 11.9691 122.362 11.9694C122.362 11.9696 122.362 11.9699 122.362 11.9701C122.362 11.9704 122.362 11.9706 122.362 11.9709C122.362 11.9712 122.362 11.9714 122.362 11.9717C122.362 11.9719 122.362 11.9722 122.362 11.9724C122.362 11.9727 122.362 11.9729 122.362 11.9732C122.362 11.9734 122.362 11.9737 122.362 11.974C122.362 11.9742 122.362 11.9745 122.362 11.9747C122.362 11.975 122.362 11.9752 122.362 11.9755C122.362 11.9757 122.362 11.976 122.362 11.9762C122.362 11.9765 122.362 11.9767 122.362 11.977C122.362 11.9773 122.362 11.9775 122.362 11.9778C122.362 11.978 122.362 11.9783 122.362 11.9785C122.362 11.9788 122.362 11.979 122.362 11.9793C122.362 11.9795 122.362 11.9798 122.362 11.9801C122.362 11.9803 122.362 11.9806 122.362 11.9808C122.362 11.9811 122.362 11.9813 122.362 11.9816C122.362 11.9818 122.362 11.9821 122.362 11.9823C122.362 11.9826 122.362 11.9828 122.362 11.9831C122.362 11.9834 122.362 11.9836 122.362 11.9839C122.362 11.9841 122.362 11.9844 122.362 11.9846C122.362 11.9849 122.362 11.9851 122.362 11.9854C122.362 11.9856 122.362 11.9859 122.362 11.9862C122.362 11.9864 122.362 11.9867 122.362 11.9869C122.362 11.9872 122.362 11.9874 122.362 11.9877C122.362 11.9879 122.362 11.9882 122.362 11.9884C122.362 11.9887 122.362 11.9889 122.362 11.9892C122.362 11.9895 122.362 11.9897 122.362 11.99C122.362 11.9902 122.362 11.9905 122.362 11.9907C122.362 11.991 122.362 11.9912 122.362 11.9915C122.362 11.9917 122.362 11.992 122.362 11.9923C122.362 11.9925 122.362 11.9928 122.362 11.993C122.362 11.9933 122.362 11.9935 122.362 11.9938C122.362 11.994 122.362 11.9943 122.362 11.9945C122.362 11.9948 122.362 11.995 122.362 11.9953C122.362 11.9956 122.362 11.9958 122.362 11.9961C122.362 11.9963 122.362 11.9966 122.362 11.9968C122.362 11.9971 122.362 11.9973 122.362 11.9976C122.362 11.9978 122.362 11.9981 122.362 11.9984C122.362 11.9986 122.362 11.9989 122.362 11.9991C122.362 11.9994 122.362 11.9996 122.362 11.9999C122.362 12.0001 122.362 12.0004 122.362 12.0006C122.362 12.0009 122.362 12.0011 122.362 12.0014C122.362 12.0017 122.362 12.0019 122.362 12.0022C122.362 12.0024 122.362 12.0027 122.362 12.0029C122.362 12.0032 122.362 12.0034 122.362 12.0037C122.362 12.0039 122.362 12.0042 122.362 12.0044C122.362 12.0047 122.362 12.005 122.362 12.0052C122.362 12.0055 122.362 12.0057 122.362 12.006C122.362 12.0062 122.362 12.0065 122.362 12.0067C122.362 12.007 122.362 12.0072 122.362 12.0075C122.362 12.0078 122.362 12.008 122.362 12.0083C122.362 12.0085 122.362 12.0088 122.362 12.009C122.362 12.0093 122.362 12.0095 122.362 12.0098C122.362 12.01 122.362 12.0103 122.362 12.0105C122.362 12.0108 122.362 12.0111 122.362 12.0113C122.362 12.0116 122.362 12.0118 122.362 12.0121C122.362 12.0123 122.362 12.0126 122.362 12.0128C122.362 12.0131 122.362 12.0133 122.362 12.0136C122.362 12.0139 122.362 12.0141 122.362 12.0144C122.362 12.0146 122.362 12.0149 122.362 12.0151C122.362 12.0154 122.362 12.0156 122.362 12.0159C122.362 12.0161 122.362 12.0164 122.362 12.0166C122.362 12.0169 122.362 12.0172 122.362 12.0174C122.362 12.0177 122.362 12.0179 122.362 12.0182C122.362 12.0184 122.362 12.0187 122.362 12.0189C122.362 12.0192 122.362 12.0194 122.362 12.0197C122.362 12.0199 122.362 12.0202 122.362 12.0205C122.362 12.0207 122.362 12.021 122.362 12.0212C122.362 12.0215 122.362 12.0217 122.362 12.022C122.362 12.0222 122.362 12.0225 122.362 12.0227C122.362 12.023 122.362 12.0233 122.362 12.0235C122.362 12.0238 122.362 12.024 122.362 12.0243C122.362 12.0245 122.362 12.0248 122.362 12.025C122.362 12.0253 122.362 12.0255 122.362 12.0258C122.362 12.026 122.362 12.0263 122.362 12.0266C122.362 12.0268 122.362 12.0271 122.362 12.0273C122.362 12.0276 122.362 12.0278 122.362 12.0281C122.362 12.0283 122.362 12.0286 122.362 12.0288C122.362 12.0291 122.362 12.0293 122.362 12.0296C122.362 12.0299 122.362 12.0301 122.362 12.0304C122.362 12.0306 122.362 12.0309 122.362 12.0311C122.362 12.0314 122.362 12.0316 122.362 12.0319C122.362 12.0321 122.362 12.0324 122.362 12.0327C122.362 12.0329 122.362 12.0332 122.362 12.0334C122.362 12.0337 122.362 12.0339 122.362 12.0342C122.362 12.0344 122.362 12.0347 122.362 12.0349C122.362 12.0352 122.362 12.0354 122.362 12.0357C122.362 12.036 122.362 12.0362 122.362 12.0365C122.362 12.0367 122.362 12.037 122.362 12.0372C122.362 12.0375 122.362 12.0377 122.362 12.038C122.362 12.0382 122.362 12.0385 122.362 12.0387C122.362 12.039 122.362 12.0393 122.362 12.0395C122.362 12.0398 122.362 12.04 122.362 12.0403C122.362 12.0405 122.362 12.0408 122.362 12.041C122.362 12.0413 122.362 12.0415 122.362 12.0418C122.362 12.042 122.362 12.0423 122.362 12.0426C122.362 12.0428 122.362 12.0431 122.362 12.0433C122.362 12.0436 122.362 12.0438 122.362 12.0441C122.362 12.0443 122.362 12.0446 122.362 12.0448C122.362 12.0451 122.362 12.0453 122.362 12.0456C122.362 12.0459 122.362 12.0461 122.362 12.0464C122.362 12.0466 122.362 12.0469 122.362 12.0471C122.362 12.0474 122.362 12.0476 122.362 12.0479C122.362 12.0481 122.362 12.0484 122.362 12.0486C122.362 12.0489 122.362 12.0492 122.362 12.0494C122.362 12.0497 122.362 12.0499 122.362 12.0502C122.362 12.0504 122.362 12.0507 122.362 12.0509C122.362 12.0512 122.362 12.0514 122.362 12.0517C122.362 12.0519 122.362 12.0522 122.362 12.0525C122.362 12.0527 122.362 12.053 122.362 12.0532C122.362 12.0535 122.362 12.0537 122.362 12.054C122.362 12.0542 122.362 12.0545 122.362 12.0547C122.362 12.055 122.362 12.0552 122.362 12.0555C122.362 12.0558 122.362 12.056 122.362 12.0563C122.362 12.0565 122.362 12.0568 122.362 12.057C122.362 12.0573 122.362 12.0575 122.362 12.0578C122.362 12.058 122.362 12.0583 122.362 12.0585C122.362 12.0588 122.362 12.0591 122.362 12.0593C122.362 12.0596 122.362 12.0598 122.362 12.0601C122.362 12.0603 122.362 12.0606 122.362 12.0608C122.362 12.0611 122.362 12.0613 122.362 12.0616C122.362 12.0618 122.362 12.0621 122.362 12.0624C122.362 12.0626 122.362 12.0629 122.362 12.0631C122.362 12.0634 122.362 12.0636 122.362 12.0639C122.362 12.0641 122.362 12.0644 122.362 12.0646C122.362 12.0649 122.362 12.0651 122.362 12.0654C122.362 12.0657 122.362 12.0659 122.362 12.0662C122.362 12.0664 122.362 12.0667 122.362 12.0669C122.362 12.0672 122.362 12.0674 122.362 12.0677C122.362 12.0679 122.362 12.0682 122.362 12.0684C122.362 12.0687 122.362 12.069 122.362 12.0692C122.362 12.0695 122.362 12.0697 122.362 12.07C122.362 12.0702 122.362 12.0705 122.362 12.0707C122.362 12.071 122.362 12.0712 122.362 12.0715C122.362 12.0717 122.362 12.072 122.362 12.0723C122.362 12.0725 122.362 12.0728 122.362 12.073C122.362 12.0733 122.362 12.0735 122.362 12.0738C122.362 12.074 122.362 12.0743 122.362 12.0745C122.362 12.0748 122.362 12.075 122.362 12.0753C122.362 12.0756 122.362 12.0758 122.362 12.0761C122.362 12.0763 122.362 12.0766 122.362 12.0768C122.362 12.0771 122.362 12.0773 122.362 12.0776C122.362 12.0778 122.362 12.0781 122.362 12.0783C122.362 12.0786 122.362 12.0788 122.362 12.0791C122.362 12.0794 122.362 12.0796 122.362 12.0799C122.362 12.0801 122.362 12.0804 122.362 12.0806C122.362 12.0809 122.362 12.0811 122.362 12.0814C122.362 12.0816 122.362 12.0819 122.362 12.0821C122.362 12.0824 122.362 12.0827 122.362 12.0829C122.362 12.0832 122.362 12.0834 122.362 12.0837C122.362 12.0839 122.362 12.0842 122.362 12.0844C122.362 12.0847 122.362 12.0849 122.362 12.0852C122.362 12.0854 122.362 12.0857 122.362 12.086C122.362 12.0862 122.362 12.0865 122.362 12.0867C122.362 12.087 122.362 12.0872 122.362 12.0875C122.362 12.0877 122.362 12.088 122.362 12.0882C122.362 12.0885 122.362 12.0887 122.362 12.089C122.362 12.0892 122.362 12.0895 122.362 12.0898C122.362 12.09 122.362 12.0903 122.362 12.0905C122.362 12.0908 122.362 12.091 122.362 12.0913C122.362 12.0915 122.362 12.0918 122.362 12.092C122.362 12.0923 122.362 12.0925 122.362 12.0928C122.362 12.093 122.362 12.0933 122.362 12.0936C122.362 12.0938 122.362 12.0941 122.362 12.0943C122.362 12.0946 122.362 12.0948 122.362 12.0951C122.362 12.0953 122.362 12.0956 122.362 12.0958C122.362 12.0961 122.362 12.0963 122.362 12.0966C122.362 12.0969 122.362 12.0971 122.362 12.0974C122.362 12.0976 122.362 12.0979 122.362 12.0981C122.362 12.0984 122.362 12.0986 122.362 12.0989C122.362 12.0991 122.362 12.0994 122.362 12.0996C122.362 12.0999 122.362 12.1001 122.362 12.1004C122.362 12.1007 122.362 12.1009 122.362 12.1012C122.362 12.1014 122.362 12.1017 122.362 12.1019C122.362 12.1022 122.362 12.1024 122.362 12.1027C122.362 12.1029 122.362 12.1032 122.362 12.1034C122.362 12.1037 122.362 12.1039 122.362 12.1042C122.362 12.1045 122.362 12.1047 122.362 12.105C122.362 12.1052 122.362 12.1055 122.362 12.1057C122.362 12.106 122.362 12.1062 122.362 12.1065C122.362 12.1067 122.362 12.107 122.362 12.1072C122.362 12.1075 122.362 12.1077 122.362 12.108C122.362 12.1083 122.362 12.1085 122.362 12.1088C122.362 12.109 122.362 12.1093 122.362 12.1095C122.362 12.1098 122.362 12.11 122.362 12.1103C122.362 12.1105 122.362 12.1108 122.362 12.111C122.362 12.1113 122.362 12.1115 122.362 12.1118C122.362 12.1121 122.362 12.1123 122.362 12.1126C122.362 12.1128 122.362 12.1131 122.362 12.1133C122.362 12.1136 122.362 12.1138 122.362 12.1141C122.362 12.1143 122.362 12.1146 122.362 12.1148C122.362 12.1151 122.362 12.1153 122.362 12.1156C122.362 12.1159 122.362 12.1161 122.362 12.1164C122.362 12.1166 122.362 12.1169 122.362 12.1171C122.362 12.1174 122.362 12.1176 122.362 12.1179C122.362 12.1181 122.362 12.1184 122.362 12.1186C122.362 12.1189 122.362 12.1191 122.362 12.1194C122.362 12.1197 122.362 12.1199 122.362 12.1202C122.362 12.1204 122.362 12.1207 122.362 12.1209C122.362 12.1212 122.362 12.1214 122.362 12.1217C122.362 12.1219 122.362 12.1222 122.362 12.1224C122.362 12.1227 122.362 12.1229 122.362 12.1232C122.362 12.1235 122.362 12.1237 122.362 12.124C122.362 12.1242 122.362 12.1245 122.362 12.1247C122.362 12.125 122.362 12.1252 122.362 12.1255C122.362 12.1257 122.362 12.126 122.362 12.1262C122.362 12.1265 122.362 12.1267 122.362 12.127C122.362 12.1272 122.362 12.1275 122.362 12.1278C122.362 12.128 122.362 12.1283 122.362 12.1285C122.362 12.1288 122.362 12.129 122.362 12.1293C122.362 12.1295 122.362 12.1298 122.362 12.13C122.362 12.1303 122.362 12.1305 122.362 12.1308C122.362 12.131 122.362 12.1313 122.362 12.1316C122.362 12.1318 122.362 12.1321 122.362 12.1323C122.362 12.1326 122.362 12.1328 122.362 12.1331C122.362 12.1333 122.362 12.1336 122.362 12.1338C122.362 12.1341 122.362 12.1343 122.362 12.1346C122.362 12.1348 122.362 12.1351 122.362 12.1353C122.362 12.1356 122.362 12.1359 122.362 12.1361C122.362 12.1364 122.362 12.1366 122.362 12.1369C122.362 12.1371 122.362 12.1374 122.362 12.1376C122.362 12.1379 122.362 12.1381 122.362 12.1384C122.362 12.1386 122.362 12.1389 122.362 12.1391C122.362 12.1394 122.362 12.1396 122.362 12.1399C122.362 12.1402 122.362 12.1404 122.362 12.1407C122.362 12.1409 122.362 12.1412 122.362 12.1414C122.362 12.1417 122.362 12.1419 122.362 12.1422C122.362 12.1424 122.362 12.1427 122.362 12.1429C122.362 12.1432 122.362 12.1434 122.362 12.1437C122.362 12.1439 122.362 12.1442 122.362 12.1445C122.362 12.1447 122.362 12.145 122.362 12.1452C122.362 12.1455 122.362 12.1457 122.362 12.146C122.362 12.1462 122.362 12.1465 122.362 12.1467C122.362 12.147 122.362 12.1472 122.362 12.1475C122.362 12.1477 122.362 12.148 122.362 12.1482C122.362 12.1485 122.362 12.1488 122.362 12.149C122.362 12.1493 122.362 12.1495 122.362 12.1498C122.362 12.15 122.362 12.1503 122.362 12.1505C122.362 12.1508 122.362 12.151 122.362 12.1513C122.362 12.1515 122.362 12.1518 122.362 12.152C122.362 12.1523 122.362 12.1525 122.362 12.1528C122.362 12.1531 122.362 12.1533 122.362 12.1536C122.362 12.1538 122.362 12.1541 122.362 12.1543C122.362 12.1546 122.362 12.1548 122.362 12.1551C122.362 12.1553 122.362 12.1556 122.362 12.1558C122.362 12.1561 122.362 12.1563 122.362 12.1566C122.362 12.1568 122.362 12.1571 122.362 12.1573C122.362 12.1576 122.362 12.1579 122.362 12.1581C122.362 12.1584 122.362 12.1586 122.362 12.1589C122.362 12.1591 122.362 12.1594 122.362 12.1596C122.362 12.1599 122.362 12.1601 122.362 12.1604C122.362 12.1606 122.362 12.1609 122.362 12.1611C122.362 12.1614 122.362 12.1616 122.362 12.1619C122.362 12.1621 122.362 12.1624 122.362 12.1627C122.362 12.1629 122.362 12.1632 122.362 12.1634C122.362 12.1637 122.362 12.1639 122.362 12.1642C122.362 12.1644 122.362 12.1647 122.362 12.1649C122.362 12.1652 122.362 12.1654 122.362 12.1657C122.362 12.1659 122.362 12.1662 122.362 12.1664C122.362 12.1667 122.362 12.1669 122.362 12.1672C122.362 12.1675 122.362 12.1677 122.362 12.168C122.362 12.1682 122.362 12.1685 122.362 12.1687C122.362 12.169 122.362 12.1692 122.362 12.1695C122.362 12.1697 122.362 12.17 122.362 12.1702C122.362 12.1705 122.362 12.1707 122.362 12.171C122.362 12.1712 122.362 12.1715 122.362 12.1717C122.362 12.172 122.362 12.1722 122.362 12.1725C122.362 12.1728 122.362 12.173 122.362 12.1733C122.362 12.1735 122.362 12.1738 122.362 12.174C122.362 12.1743 122.362 12.1745 122.362 12.1748C122.362 12.175 122.362 12.1753 122.362 12.1755C122.362 12.1758 122.362 12.176 122.362 12.1763C122.362 12.1765 122.362 12.1768 122.362 12.177C122.362 12.1773 122.362 12.1775 122.362 12.1778C122.362 12.1781 122.362 12.1783 122.362 12.1786C122.362 12.1788 122.362 12.1791 122.362 12.1793C122.362 12.1796 122.362 12.1798 122.362 12.1801C122.362 12.1803 122.362 12.1806 122.362 12.1808C122.362 12.1811 122.362 12.1813 122.362 12.1816C122.362 12.1818 122.362 12.1821 122.362 12.1823C122.362 12.1826 122.362 12.1828 122.362 12.1831C122.362 12.1834 122.362 12.1836 122.362 12.1839C122.362 12.1841 122.362 12.1844 122.362 12.1846C122.362 12.1849 122.362 12.1851 122.362 12.1854C122.362 12.1856 122.362 12.1859 122.362 12.1861C122.362 12.1864 122.362 12.1866 122.362 12.1869C122.362 12.1871 122.362 12.1874 122.362 12.1876C122.362 12.1879 122.362 12.1881 122.362 12.1884C122.362 12.1886 122.362 12.1889 122.362 12.1892C122.362 12.1894 122.362 12.1897 122.362 12.1899C122.362 12.1902 122.362 12.1904 122.362 12.1907C122.362 12.1909 122.362 12.1912 122.362 12.1914C122.362 12.1917 122.362 12.1919 122.362 12.1922C122.362 12.1924 122.362 12.1927 122.362 12.1929C122.362 12.1932 122.362 12.1934 122.362 12.1937C122.362 12.1939 122.362 12.1942 122.362 12.1944C122.362 12.1947 122.362 12.195 122.362 12.1952C122.362 12.1955 122.362 12.1957 122.362 12.196C122.362 12.1962 122.362 12.1965 122.362 12.1967C122.362 12.197 122.362 12.1972 122.362 12.1975C122.362 12.1977 122.362 12.198 122.362 12.1982C122.362 12.1985 122.362 12.1987 122.362 12.199C122.362 12.1992 122.362 12.1995 122.362 12.1997C122.362 12.2 122.362 12.2002 122.362 12.2005C122.362 12.2007 122.362 12.201 122.362 12.2013C122.362 12.2015 122.362 12.2018 122.362 12.202C122.362 12.2023 122.362 12.2025 122.362 12.2028C122.362 12.203 122.362 12.2033 122.362 12.2035C122.362 12.2038 122.362 12.204 122.362 12.2043C122.362 12.2045 122.362 12.2048 122.362 12.205C122.362 12.2053 122.362 12.2055 122.362 12.2058C122.362 12.206 122.362 12.2063 122.362 12.2065C122.362 12.2068 122.362 12.207 122.362 12.2073C122.362 12.2075 122.362 12.2078 122.362 12.2081C122.362 12.2083 122.362 12.2086 122.362 12.2088C122.362 12.2091 122.362 12.2093 122.362 12.2096C122.362 12.2098 122.362 12.2101 122.362 12.2103C122.362 12.2106 122.362 12.2108 122.362 12.2111C122.362 12.2113 122.362 12.2116 122.362 12.2118C122.362 12.2121 122.362 12.2123 122.362 12.2126C122.362 12.2128 122.362 12.2131 122.362 12.2133C122.362 12.2136 122.362 12.2138 122.362 12.2141C122.362 12.2143 122.362 12.2146 122.362 12.2149C122.362 12.2151 122.362 12.2154 122.362 12.2156C122.362 12.2159 122.362 12.2161 122.362 12.2164C122.362 12.2166 122.362 12.2169 122.362 12.2171C122.362 12.2174 122.362 12.2176 122.362 12.2179C122.362 12.2181 122.362 12.2184 122.362 12.2186C122.362 12.2189 122.362 12.2191 122.362 12.2194C122.362 12.2196 122.362 12.2199 122.362 12.2201C122.362 12.2204 122.362 12.2206 122.362 12.2209C122.362 12.2211 122.362 12.2214 122.362 12.2216C122.362 12.2219 122.362 12.2221 122.362 12.2224C122.362 12.2226 122.362 12.2229 122.362 12.2232C122.362 12.2234 122.362 12.2237 122.362 12.2239C122.362 12.2242 122.362 12.2244 122.362 12.2247C122.362 12.2249 122.362 12.2252 122.362 12.2254C122.362 12.2257 122.362 12.2259 122.362 12.2262C122.362 12.2264 122.362 12.2267 122.362 12.2269C122.362 12.2272 122.362 12.2274 122.362 12.2277C122.362 12.2279 122.362 12.2282 122.362 12.2284C122.362 12.2287 122.362 12.2289 122.362 12.2292C122.362 12.2294 122.362 12.2297 122.362 12.2299C122.362 12.2302 122.362 12.2304 122.362 12.2307C122.362 12.2309 122.362 12.2312 122.362 12.2314C122.362 12.2317 122.362 12.232 122.362 12.2322C122.362 12.2325 122.362 12.2327 122.362 12.233C122.362 12.2332 122.362 12.2335 122.362 12.2337C122.362 12.234 122.362 12.2342 122.362 12.2345C122.362 12.2347 122.362 12.235 122.362 12.2352C122.362 12.2355 122.362 12.2357 122.362 12.236C122.362 12.2362 122.362 12.2365 122.362 12.2367C122.362 12.237 122.362 12.2372 122.362 12.2375C122.362 12.2377 122.362 12.238 122.362 12.2382C122.362 12.2385 122.362 12.2387 122.362 12.239C122.362 12.2392 122.362 12.2395 122.362 12.2397C122.362 12.24 122.362 12.2402 122.362 12.2405C122.362 12.2407 122.362 12.241 122.362 12.2412C122.362 12.2415 122.362 12.2417 122.362 12.242C122.362 12.2423 122.362 12.2425 122.362 12.2428C122.362 12.243 122.362 12.2433 122.362 12.2435C122.362 12.2438 122.362 12.244 122.362 12.2443C122.362 12.2445 122.362 12.2448 122.362 12.245C122.362 12.2453 122.362 12.2455 122.362 12.2458C122.362 12.246 122.362 12.2463 122.362 12.2465C122.362 12.2468 122.362 12.247 122.362 12.2473C122.362 12.2475 122.362 12.2478 122.362 12.248C122.362 12.2483 122.362 12.2485 122.362 12.2488C122.362 12.249 122.362 12.2493 122.362 12.2495C122.362 12.2498 122.362 12.25 122.362 12.2503C122.362 12.2505 122.362 12.2508 122.362 12.251C122.362 12.2513 122.362 12.2515 122.362 12.2518C122.362 12.252 122.362 12.2523 122.362 12.2525C122.362 12.2528 122.362 12.253 122.362 12.2533C122.362 12.2535 122.362 12.2538 122.362 12.254C122.362 12.2543 122.362 12.2545 122.362 12.2548C122.362 12.255 122.362 12.2553 122.362 12.2556C122.362 12.2558 122.362 12.2561 122.362 12.2563C122.362 12.2566 122.362 12.2568 122.362 12.2571C122.362 12.2573 122.362 12.2576 122.362 12.2578C122.362 12.2581 122.362 12.2583 122.362 12.2586C122.362 12.2588 122.362 12.2591 122.362 12.2593C122.362 12.2596 122.362 12.2598 122.362 12.2601C122.362 12.2603 122.362 12.2606 122.362 12.2608C122.362 12.2611 122.362 12.2613 122.362 12.2616C122.362 12.2618 122.362 12.2621 122.362 12.2623C122.362 12.2626 122.362 12.2628 122.362 12.2631C122.362 12.2633 122.362 12.2636 122.362 12.2638C122.362 12.2641 122.362 12.2643 122.362 12.2646C122.362 12.2648 122.362 12.2651 122.362 12.2653C122.362 12.2656 122.362 12.2658 122.362 12.2661C122.362 12.2663 122.362 12.2666 122.362 12.2668C122.362 12.2671 122.362 12.2673 122.362 12.2676C122.362 12.2678 122.362 12.2681 122.362 12.2683C122.362 12.2686 122.362 12.2688 122.362 12.2691C122.362 12.2693 122.362 12.2696 122.362 12.2698C122.362 12.2701 122.362 12.2703 122.362 12.2706C122.362 12.2708 122.362 12.2711 122.362 12.2713C122.362 12.2716 122.362 12.2718 122.362 12.2721C122.362 12.2723 122.362 12.2726 122.362 12.2728C122.362 12.2731 122.362 12.2733 122.362 12.2736C122.362 12.2738 122.362 12.2741 122.362 12.2743C122.362 12.2746 122.362 12.2748 122.362 12.2751C122.362 12.2753 122.362 12.2756 122.362 12.2758C122.362 12.2761 122.362 12.2763 122.362 12.2766C122.362 12.2768 122.362 12.2771 122.362 12.2773C122.362 12.2776 122.362 12.2778 122.362 12.2781C122.362 12.2783 122.362 12.2786 122.362 12.2788C122.362 12.2791 122.362 12.2793 122.362 12.2796C122.362 12.2798 122.362 12.2801 122.362 12.2803C122.362 12.2806 122.362 12.2809 122.362 12.2811C122.362 12.2814 122.362 12.2816 122.362 12.2819C122.362 12.2821 122.362 12.2824 122.362 12.2826C122.362 12.2829 122.362 12.2831 122.362 12.2834C122.362 12.2836 122.362 12.2839 122.362 12.2841C122.362 12.2844 122.362 12.2846 122.362 12.2849C122.362 12.2851 122.362 12.2854 122.362 12.2856C122.362 12.2859 122.362 12.2861 122.362 12.2864C122.362 12.2866 122.362 12.2869 122.362 12.2871C122.362 12.2874 122.362 12.2876 122.362 12.2879C122.362 12.2881 122.362 12.2884 122.362 12.2886C122.362 12.2889 122.362 12.2891 122.362 12.2894C122.362 12.2896 122.362 12.2899 122.362 12.2901C122.362 12.2904 122.362 12.2906 122.362 12.2909C122.362 12.2911 122.362 12.2914 122.362 12.2916C122.362 12.2919 122.362 12.2921 122.362 12.2924C122.362 12.2926 122.362 12.2929 122.362 12.2931C122.362 12.2934 122.362 12.2936 122.362 12.2939C122.362 12.2941 122.362 12.2943 122.362 12.2946C122.362 12.2948 122.362 12.2951 122.362 12.2953C122.362 12.2956 122.362 12.2958 122.362 12.2961C122.362 12.2963 122.362 12.2966 122.362 12.2968C122.362 12.2971 122.362 12.2973 122.362 12.2976C122.362 12.2978 122.362 12.2981 122.362 12.2983C122.362 12.2986 122.362 12.2988 122.362 12.2991C122.362 12.2993 122.362 12.2996 122.362 12.2998C122.362 12.3001 122.362 12.3003 122.362 12.3006C122.362 12.3008 122.362 12.3011 122.362 12.3013C122.362 12.3016 122.362 12.3018 122.362 12.3021C122.362 12.3023 122.362 12.3026 122.362 12.3028C122.362 12.3031 122.362 12.3033 122.362 12.3036C122.362 12.3038 122.362 12.3041 122.362 12.3043C122.362 12.3046 122.362 12.3048 122.362 12.3051C122.362 12.3053 122.362 12.3056 122.362 12.3058C122.362 12.3061 122.362 12.3063 122.362 12.3066C122.362 12.3068 122.362 12.3071 122.362 12.3073C122.362 12.3076 122.362 12.3078 122.362 12.3081C122.362 12.3083 122.362 12.3086 122.362 12.3088C122.362 12.3091 122.362 12.3093 122.362 12.3096C122.362 12.3098 122.362 12.3101 122.362 12.3103C122.362 12.3106 122.362 12.3108 122.362 12.3111C122.362 12.3113 122.362 12.3116 122.362 12.3118C122.362 12.3121 122.362 12.3123 122.362 12.3126C122.362 12.3128 122.362 12.3131 122.362 12.3133C122.362 12.3136 122.362 12.3138 122.362 12.3141C122.362 12.3143 122.362 12.3146 122.362 12.3148C122.362 12.3151 122.362 12.3153 122.362 12.3156C122.362 12.3158 122.362 12.3161 122.362 12.3163C122.362 12.3166 122.362 12.3168 122.362 12.3171C122.362 12.3173 122.362 12.3176 122.362 12.3178C122.362 12.3181 122.362 12.3183 122.362 12.3185C122.362 12.3188 122.362 12.319 122.362 12.3193C122.362 12.3195 122.362 12.3198 122.362 12.32C122.362 12.3203 122.362 12.3205 122.362 12.3208C122.362 12.321 122.362 12.3213 122.362 12.3215C122.362 12.3218 122.362 12.322 122.362 12.3223C122.362 12.3225 122.362 12.3228 122.362 12.323C122.362 12.3233 122.362 12.3235 122.362 12.3238C122.362 12.324 122.362 12.3243 122.362 12.3245C122.362 12.3248 122.362 12.325 122.362 12.3253C122.362 12.3255 122.362 12.3258 122.362 12.326C122.362 12.3263 122.362 12.3265 122.362 12.3268C122.362 12.327 122.362 12.3273 122.362 12.3275C122.362 12.3278 122.362 12.328 122.362 12.3283C122.362 12.3285 122.362 12.3288 122.362 12.329C122.362 12.3293 122.362 12.3295 122.362 12.3298C122.362 12.33 122.362 12.3303 122.362 12.3305C122.362 12.3307 122.362 12.331 122.362 12.3312C122.362 12.3315 122.362 12.3317 122.362 12.332C122.362 12.3322 122.362 12.3325 122.362 12.3327C122.362 12.333 122.362 12.3332 122.362 12.3335C122.362 12.3337 122.362 12.334 122.362 12.3342C122.362 12.3345 122.362 12.3347 122.362 12.335C122.362 12.3352 122.362 12.3355 122.362 12.3357C122.362 12.336 122.362 12.3362 122.362 12.3365C122.362 12.3367 122.362 12.337 122.362 12.3372C122.362 12.3375 122.362 12.3377 122.362 12.338C122.362 12.3382 122.362 12.3385 122.362 12.3387C122.362 12.339 122.362 12.3392 122.362 12.3395C122.362 12.3397 122.362 12.3399 122.362 12.3402C122.362 12.3404 122.362 12.3407 122.362 12.3409C122.362 12.3412 122.362 12.3414 122.362 12.3417C122.362 12.3419 122.362 12.3422 122.362 12.3424C122.362 12.3427 122.362 12.3429 122.362 12.3432C122.362 12.3434 122.362 12.3437 122.362 12.3439C122.362 12.3442 122.362 12.3444 122.362 12.3447C122.362 12.3449 122.362 12.3452 122.362 12.3454C122.362 12.3457 122.362 12.3459 122.362 12.3462C122.362 12.3464 122.362 12.3467 122.362 12.3469C122.362 12.3472 122.362 12.3474 122.362 12.3476C122.362 12.3479 122.362 12.3481 122.362 12.3484C122.362 12.3486 122.362 12.3489 122.362 12.3491C122.362 12.3494 122.362 12.3496 122.362 12.3499C122.362 12.3501 122.362 12.3504 122.362 12.3506C122.362 12.3509 122.362 12.3511 122.362 12.3514C122.362 12.3516 122.362 12.3519 122.362 12.3521H127.142ZM127.142 11.9649C127.142 10.4408 127.652 8.96019 128.593 7.75857L124.828 4.81303C123.23 6.85501 122.362 9.37241 122.362 11.9647L127.142 11.9649ZM128.593 7.75857C129.533 6.5569 130.849 5.7032 132.332 5.33405L131.177 0.6956C128.661 1.32203 126.426 2.77112 124.828 4.81303L128.593 7.75857ZM132.332 5.33405C133.815 4.9649 135.379 5.1017 136.775 5.72252L138.717 1.35494C136.348 0.30121 133.694 0.0691809 131.177 0.6956L132.332 5.33405ZM136.775 5.72252C138.171 6.34332 139.318 7.4122 140.035 8.75843L144.254 6.51234C143.036 4.22387 141.087 2.40869 138.717 1.35494L136.775 5.72252ZM140.035 8.75843C140.751 10.1046 140.996 11.6511 140.731 13.1521L145.438 13.9836C145.889 11.4308 145.472 8.80085 144.254 6.51234L140.035 8.75843ZM140.731 13.1521C140.466 14.6531 139.706 16.0229 138.571 17.0435L141.766 20.5982C143.695 18.8646 144.987 16.5364 145.438 13.9836L140.731 13.1521ZM138.571 17.0435C137.435 18.0641 135.99 18.6766 134.466 18.7829L134.798 23.5513C137.385 23.371 139.838 22.3317 141.766 20.5982L138.571 17.0435ZM134.466 18.7829C132.941 18.8892 131.425 18.4832 130.158 17.6299L127.487 21.594C129.638 23.0429 132.211 23.7317 134.798 23.5513L134.466 18.7829ZM156.547 22.4478C155.708 22.1959 154.971 21.6841 154.443 20.9871L150.632 23.8722C151.773 25.3785 153.363 26.4828 155.172 27.026L156.547 22.4478ZM154.443 20.9871C153.916 20.29 153.624 19.4439 153.61 18.571L148.831 18.6471C148.861 20.536 149.492 22.366 150.632 23.8722L154.443 20.9871ZM153.61 18.571C153.596 17.6981 153.861 16.8431 154.366 16.1297L150.465 13.3673C149.373 14.9091 148.801 16.7583 148.831 18.6471L153.61 18.571ZM154.366 16.1297C154.871 15.4163 155.591 14.8813 156.421 14.6029L154.902 10.0707C153.111 10.6712 151.557 11.8256 150.465 13.3673L154.366 16.1297ZM156.421 14.6029C157.252 14.3245 158.15 14.3172 158.985 14.5821L160.431 10.0259C158.63 9.45457 156.694 9.47027 154.902 10.0707L156.421 14.6029ZM158.985 14.5821C159.82 14.8471 160.549 15.3703 161.065 16.0754L164.921 13.2501C163.804 11.7262 162.232 10.5973 160.431 10.0259L158.985 14.5821ZM161.065 16.0754C161.582 16.7806 161.861 17.6312 161.861 18.5042L166.641 18.5027C166.64 16.6136 166.038 14.774 164.921 13.2501L161.065 16.0754ZM161.861 18.5042C161.861 19.3772 161.583 20.228 161.067 20.9334L164.924 23.7563C166.04 22.2317 166.641 20.3918 166.641 18.5027L161.861 18.5042ZM118.53 132.11C105.798 139.772 98.766 151.869 95.3123 162.176C93.5831 167.336 92.7239 172.124 92.5068 175.804C92.3989 177.633 92.4451 179.265 92.6558 180.567C92.7605 181.213 92.9185 181.861 93.1653 182.438C93.3891 182.962 93.816 183.739 94.6436 184.235L97.1004 180.135C97.5401 180.398 97.6253 180.711 97.5608 180.56C97.5195 180.463 97.4431 180.227 97.3744 179.803C97.2385 178.963 97.1829 177.707 97.2785 176.085C97.4688 172.86 98.2384 168.488 99.8446 163.695C103.062 154.094 109.526 143.107 120.995 136.206L118.53 132.11ZM96.7449 184.41C98.1629 183.853 99.839 182.747 101.593 181.383C103.391 179.985 105.429 178.19 107.591 176.114C111.919 171.96 116.836 166.597 121.47 160.831C126.101 155.069 130.493 148.854 133.74 142.995C136.938 137.224 139.218 131.467 139.218 126.721H134.438C134.438 130.187 132.683 135.042 129.559 140.678C126.485 146.225 122.267 152.21 117.745 157.836C113.227 163.457 108.447 168.667 104.281 172.666C102.197 174.666 100.288 176.343 98.659 177.61C96.9856 178.911 95.7529 179.664 94.9991 179.96L96.7449 184.41ZM139.218 126.721C139.218 125.703 138.858 124.782 138.457 124.046C138.045 123.29 137.495 122.56 136.9 121.881C135.71 120.525 134.154 119.161 132.593 117.942C129.523 115.544 126.001 113.376 124.457 112.748L122.658 117.177C123.593 117.557 126.705 119.408 129.651 121.709C131.098 122.839 132.394 123.994 133.306 125.033C133.761 125.552 134.073 125.99 134.261 126.334C134.459 126.699 134.438 126.81 134.438 126.721H139.218ZM124.426 112.736C124.84 112.897 125.018 113.233 124.946 113.116C124.941 113.108 124.872 112.993 124.827 112.922C124.77 112.833 124.67 112.682 124.533 112.521C124.231 112.166 123.683 111.692 122.839 111.557C122.086 111.437 121.455 111.65 121.072 111.82C120.674 111.998 120.294 112.243 119.946 112.496C119.245 113.005 118.321 113.802 117.077 114.951L120.32 118.463C121.55 117.327 122.298 116.695 122.754 116.364C122.985 116.197 123.056 116.169 123.016 116.187C122.992 116.198 122.627 116.364 122.086 116.278C121.454 116.177 121.061 115.816 120.895 115.622C120.805 115.516 120.729 115.382 120.869 115.612C121.065 115.932 121.58 116.757 122.689 117.189L124.426 112.736ZM116.309 116.723C116.323 118.866 116.244 122.284 116.333 125.536C116.422 128.778 116.679 132.304 117.482 134.871L122.044 133.445C121.459 131.574 121.2 128.645 121.111 125.405C121.023 122.177 121.105 119.088 121.088 116.691L116.309 116.723ZM121.107 115.628C122.043 116.008 125.155 117.859 128.101 120.16C129.547 121.289 130.844 122.444 131.755 123.483C132.21 124.003 132.522 124.44 132.709 124.784C132.908 125.149 132.886 125.261 132.886 125.172H137.666C137.666 124.154 137.307 123.232 136.906 122.497C136.494 121.741 135.944 121.011 135.349 120.332C134.16 118.976 132.604 117.612 131.043 116.393C127.974 113.995 124.451 111.826 122.904 111.199L121.107 115.628ZM132.886 125.172C132.886 128.568 131.19 133.333 128.158 138.858L132.348 141.158C135.459 135.49 137.666 129.833 137.666 125.172H132.886ZM116.257 156.204C111.732 161.844 106.939 167.073 102.76 171.087C100.669 173.095 98.7539 174.778 97.1195 176.049C95.4406 177.354 94.2049 178.109 93.4507 178.403L95.1905 182.855C96.6129 182.3 98.2945 181.19 100.054 179.822C101.858 178.42 103.901 176.619 106.071 174.535C110.412 170.365 115.343 164.981 119.985 159.196L116.257 156.204ZM95.5491 178.579C95.9887 178.843 96.0739 179.155 96.0095 179.005C95.9682 178.908 95.8917 178.672 95.823 178.247C95.6871 177.408 95.6315 176.152 95.7272 174.53C95.9174 171.305 96.6871 166.933 98.2933 162.139C101.51 152.538 107.975 141.552 119.444 134.65L116.979 130.555C104.247 138.216 97.2146 150.314 93.761 160.621C92.0318 165.781 91.1725 170.569 90.9555 174.248C90.8476 176.078 90.8937 177.71 91.1045 179.011C91.2091 179.658 91.3672 180.305 91.614 180.883C91.8377 181.406 92.2647 182.184 93.0922 182.68L95.5491 178.579ZM120.575 96.7196C123.194 94.7583 128.887 89.5378 134.056 84.6068C136.665 82.1177 139.182 79.6631 141.168 77.6702C143.088 75.7431 144.665 74.0974 145.254 73.3129L141.432 70.4425C141.09 70.8974 139.798 72.2728 137.782 74.2963C135.831 76.2539 133.344 78.6796 130.757 81.1481C125.532 86.1323 120.055 91.1369 117.709 92.8938L120.575 96.7196ZM144.045 74.1623C143.487 74.3339 143.186 74.023 143.294 74.1224C143.413 74.2313 143.705 74.5983 143.965 75.3961C144.473 76.96 144.689 79.6957 143.705 83.5212C141.744 91.14 135.091 102.742 117.642 116.804L120.642 120.526C138.564 106.082 146.028 93.6707 148.334 84.7125C149.482 80.2494 149.369 76.5557 148.51 73.9173C148.086 72.6139 147.435 71.4365 146.53 70.6037C145.614 69.7614 144.208 69.1117 142.641 69.5931L144.045 74.1623ZM129.898 102.372C125.648 107.02 121.035 111.325 116.104 115.245L119.078 118.987C124.207 114.909 129.005 110.432 133.425 105.597L129.898 102.372ZM119.024 95.1704C121.642 93.209 127.335 87.9886 132.505 83.0575C135.114 80.5684 137.63 78.1139 139.616 76.1209C141.536 74.1938 143.114 72.5482 143.703 71.7637L139.881 68.8932C139.539 69.3481 138.246 70.7235 136.23 72.747C134.279 74.7047 131.793 77.1303 129.205 79.5988C123.98 84.583 118.504 89.5877 116.158 91.3445L119.024 95.1704ZM142.494 72.6131C141.65 72.8722 141.515 72.157 141.963 72.8519C142.323 73.4109 142.751 74.5632 142.83 76.3989C142.985 80.0203 141.749 85.8585 136.83 93.4409L140.84 96.0424C146.144 87.8658 147.814 81.0588 147.605 76.1942C147.502 73.7869 146.931 71.7359 145.98 70.2619C145.118 68.924 143.361 67.3462 141.09 68.0438L142.494 72.6131Z" fill="url(#paint0_linear)"/>
<defs>
<linearGradient id="paint0_linear" x1="131.412" y1="70.2727" x2="131.412" y2="94.7416" gradientUnits="userSpaceOnUse">
<stop stop-color="#FF6B00"/>
<stop offset="1" stop-color="#FFD600"/>
</linearGradient>
</defs>
</svg>
